<?xml version="1.0" encoding="utf-8"?>
<!-- Generator: Adobe Illustrator 18.1.1, SVG Export Plug-In . SVG Version: 6.00 Build 0)  -->
<svg version="1.1" id="Слой_1" xmlns="http://www.w3.org/2000/svg" xmlns:xlink="http://www.w3.org/1999/xlink" x="0px" y="0px"
	 viewBox="0 0 310 170" enable-background="new 0 0 310 170" xml:space="preserve">
<g>
	<g>
		<path fill="#FFFFFF" d="M161.2,138.3c0,0.2-0.1,0.5-0.3,0.8c-1.4,1.9-3.5,3.8-6.3,5.8c-3.2,2.1-5.8,3.2-7.8,3.2
			c-3,0-4.5-2.2-4.5-6.5c0-3.3,0.9-6.9,2.8-10.8c-3.6,0-5.5-0.7-5.5-2c0-0.3,0.3-0.5,0.8-0.5c0.6,0,1.6,0.1,3,0.2
			c1.4,0.1,2.4,0.2,3,0.2c0.3-0.5,1.5-2.6,3.4-6.3c1.5-2.9,2.8-4.7,3.8-5.6c0.7-0.7,1.7-1.1,3-1.1c1.1,0,1.7,0.2,1.7,0.7
			c0,0.1,0,0.1-0.1,0.2c-0.7,0.9-1.8,2.3-3.1,4c-2.3,3.1-4.1,5.8-5.5,8.3c0.7,0.1,1.8,0.1,3.1,0.1c0.4,0,0.9,0,1.6-0.1
			c0.7,0,1.3,0,1.6,0c0.6,0,0.9,0.2,0.9,0.5c0,0.8-2.7,1.3-8.1,1.4c-0.8,1.3-1.6,3.1-2.3,5.5c-0.7,2.3-1.1,4.3-1.1,5.8
			c0,2.7,1,4.1,3,4.1c1.7,0,3.8-0.9,6.3-2.7c2.1-1.5,3.8-3.1,5.1-4.8c0.4-0.5,0.7-0.7,1-0.7C161,137.9,161.2,138.1,161.2,138.3z"/>
		<path fill="#FFFFFF" d="M163.1,147.5c-1.5,0-2.9-0.5-4.1-1.4c-1.3-0.9-1.9-2.3-1.9-4c0-1.9,0.8-3.6,2.5-5c1.7-1.4,3.5-2.2,5.5-2.6
			c0.3-0.1,0.7-0.1,1-0.1c0.3,0,0.6,0,1,0c1.4,0,2.6,0.4,3.7,1.3c1,0.9,1.6,2.1,1.6,3.7c0,2.1-0.8,3.9-2.4,5.4
			c-1.6,1.5-3.4,2.4-5.3,2.7c-0.2,0-0.5,0.1-0.7,0.1C163.6,147.5,163.4,147.5,163.1,147.5L163.1,147.5z M167,144.4
			c1-1,1.6-2.1,2-3.2c0.1-0.4,0.2-0.7,0.3-1.1c0.1-0.3,0.1-0.7,0.1-1c0-1-0.4-1.8-1.1-2.4c-0.7-0.6-1.6-0.8-2.6-0.8
			c-1.4,0-2.7,0.7-3.8,2c-1.1,1.3-1.7,2.8-1.9,4.4c0,0.1,0,0.2,0,0.2c0,0.1,0,0.1,0,0.2c0,1,0.3,1.7,0.8,2.2
			c0.5,0.5,1.1,0.8,1.8,0.9c0.1,0,0.3,0,0.4,0c0.1,0,0.2,0,0.4,0C164.8,145.9,166.1,145.4,167,144.4z"/>
		<path fill="#FFFFFF" d="M200.6,116.9c0,0.1-0.1,0.2-0.2,0.3c-1.3,1.3-2.4,2.6-3.3,3.8c-2.1,2.6-4.3,5.6-6.3,9.1
			c-2.5,4.1-4,7.4-4.7,9.9c0.9-1.7,2-3.2,3.3-4.6c1.7-2,3.2-3,4.6-3c1.1,0,1.6,0.8,1.6,2.3c0,2.2-0.7,4.7-2.1,7.6
			c-1,2-2.2,3.7-3.6,5c-1.8,1.7-3.6,2.5-5.5,2.5c-1.4,0-2.1-0.3-2.1-0.8c0-0.2,0.1-0.3,0.3-0.3c0.1,0,0.4,0.1,0.8,0.2
			c0.4,0.1,0.8,0.2,1,0.2c1.6,0,3.2-0.9,4.8-2.7c1.2-1.4,2.1-3,2.9-4.9c0.7-1.7,1-3.5,1-5.3c0-1.2-0.3-1.8-0.8-1.8
			c-1.2,0-2.8,1.6-4.7,4.9c-1.9,3.1-2.8,5.3-2.8,6.8c0,0.4,0.1,0.7,0.4,0.9c0.3,0.2,0.4,0.4,0.4,0.5c0,0.1-0.1,0.2-0.3,0.2
			c-1.3,0-2-1-2-2.9c0-2.8,1.5-6.9,4.3-12.3c2.2-4.1,4.6-7.9,7.1-11.5c0.7-0.9,1.3-1.9,2-2.8c1-1.2,1.9-1.8,2.6-1.8
			C200.1,116.3,200.6,116.5,200.6,116.9z"/>
		<path fill="#FFFFFF" d="M211.7,141.5c0,0.1,0,0.2-0.1,0.3c-0.9,1.4-2.2,2.7-4,3.9c-1.9,1.3-3.6,1.9-5.2,1.9
			c-2.3,0-3.4-1.4-3.4-4.2c0-1.9,0.8-3.9,2.4-6.1c1.7-2.4,3.5-3.5,5.3-3.5c0.4,0,0.7,0.2,0.9,0.5c0.3,0.3,0.4,0.7,0.4,1
			c0,1.1-0.8,2.5-2.5,4c-1.5,1.4-2.9,2.3-4.1,2.8c-0.2,0.9-0.4,1.6-0.4,2.3c0,1.5,0.7,2.2,2,2.2c1.3,0,2.7-0.5,4.2-1.6
			c1.4-0.9,2.5-1.9,3.5-3.1c0.2-0.4,0.5-0.5,0.8-0.5C211.6,141.3,211.7,141.4,211.7,141.5z M206.4,135.8c0-0.4-0.2-0.6-0.6-0.6
			c-0.5,0-1.3,0.8-2.4,2.5c-0.9,1.4-1.4,2.5-1.7,3.3c0.9-0.4,1.9-1.1,2.9-2.1C205.8,137.7,206.4,136.7,206.4,135.8z"/>
	</g>
	<g>
		<path fill="#FFFFFF" d="M189.5,67.5c0,0.3-0.1,0.7-0.4,1.1c-3.2,5.2-6.5,7.7-9.7,7.7c-2.3,0-3.5-1.4-3.5-4.1
			c0-2.6,0.9-5.3,2.6-8.2c-0.2,0.1-0.5,0.1-0.8,0.1c-0.7,0-1.3-0.2-1.9-0.6c-0.7-0.5-1.1-1-1.1-1.6c-0.5,1-1.3,2.5-2.6,4.4
			c-1.5,2.4-2.6,3.6-3.1,3.6c-0.2,0-0.2-0.1-0.2-0.2c0-0.2,0.1-0.4,0.3-0.7c1.6-2.2,3.3-5.1,4.9-8.5c-0.1-0.4-0.1-0.8-0.1-1.4
			c0-1,0.2-2.1,0.6-3.3c0.4-1.6,1-2.4,1.7-2.4c0.5,0,0.9,0.4,1.2,1.1c0.3,0.6,0.4,1.1,0.4,1.7c0,1-0.9,2.6-2.6,4.6
			c0.4,1.3,1.1,1.9,2.2,1.9c0.7,0,1.5-0.4,2.2-1.2c0.7-0.8,1.2-1.2,1.5-1.2c0.4,0,0.7,0.2,1,0.5c0.3,0.3,0.4,0.7,0.4,1.1
			c0,0-0.7,1.4-2.2,4.2c-1.5,2.8-2.2,5-2.2,6.6c0,1.5,0.7,2.2,2.1,2.2c1.2,0,2.5-0.7,4-2c1-0.9,2.1-2.1,3.4-3.7c1-1.3,1.6-2,1.6-2
			C189.4,67.1,189.5,67.2,189.5,67.5z"/>
		<path fill="#FFFFFF" d="M209.2,67.7c0,0.3-0.1,0.6-0.4,1c-3.8,5-7,7.6-9.7,7.6c-2.3,0-3.4-1.2-3.4-3.7c0-1.2,0.4-3,1.2-5.1
			c0.7-2,1.5-3.6,2.4-4.7c0.2-0.4,0.5-0.6,0.9-0.6c0.4,0,0.7,0.2,1,0.5c0.3,0.3,0.5,0.7,0.5,1.1c0,0.2-0.1,0.4-0.2,0.7
			c-2.1,3.2-3.1,5.9-3.1,8.1c0,1.5,0.5,2.2,1.6,2.2c1.2,0,2.6-0.7,4.1-2c1-0.9,2.1-2.1,3.3-3.6c1-1.3,1.6-2,1.6-2
			C209.1,67.2,209.2,67.4,209.2,67.7z M205.1,56.4c0,0.5-0.2,0.9-0.6,1.3c-0.4,0.4-0.9,0.6-1.4,0.6c-1,0-1.5-0.5-1.5-1.5
			c0-0.5,0.2-0.9,0.6-1.3c0.4-0.4,0.9-0.6,1.4-0.6C204.6,54.9,205.1,55.4,205.1,56.4z"/>
		<path fill="#FFFFFF" d="M242.4,40.7c0,4.4-5,12.4-14.9,24.1c-0.2,1.5-0.4,2.8-0.4,4.1c0,3.2,0.7,4.7,2,4.7c0.9,0,2.2-1,3.8-3
			c1.7-2,2.6-3,2.7-3c0.1,0,0.2,0.1,0.2,0.3c0,0.2-0.1,0.5-0.3,0.9c-2.6,4.2-5.2,6.3-7.6,6.3c-2.2,0-3.2-1.6-3.2-4.9
			c0-1,0.1-2.2,0.4-3.6c-3.2,5.8-6,8.7-8.2,8.7c-1.3,0-1.9-0.7-1.9-2.1c0-2.6,1.3-5.6,4-9c2.8-3.7,5.5-5.4,7.9-5.1
			c1.4-4.8,2.9-9,4.6-12.5c2.8-5.8,5.6-8.7,8.3-8.7C241.6,37.7,242.4,38.7,242.4,40.7z M226.2,61.9c0,0,0-0.1-0.1-0.2
			c-0.1-0.1-0.3-0.2-0.7-0.2c-1.7,0-3.5,1.3-5.4,3.9c-2,2.6-2.9,4.7-2.9,6.5c0,0.9,0.3,1.4,0.9,1.4c0.9,0,2.1-0.9,3.6-2.8
			c0.5-0.7,1.4-2.1,2.7-4.3C225.6,63.8,226.2,62.4,226.2,61.9z M240,40.8c0-0.9-0.4-1.4-1.1-1.4c-2,0-4.3,3.4-6.9,10.2
			c-1.7,4.5-3.1,8.9-4.1,13.4C236,52,240,44.7,240,40.8z"/>
		<path fill="#FFFFFF" d="M257.1,68.2c0,0.1,0,0.2-0.1,0.4c-1,1.6-2.6,3.1-4.7,4.5c-2.2,1.5-4.2,2.2-6.1,2.2c-2.6,0-3.9-1.6-3.9-4.9
			c0-2.2,0.9-4.5,2.8-7.1c2-2.7,4.1-4.1,6.2-4.1c0.4,0,0.8,0.2,1.1,0.6c0.3,0.4,0.5,0.8,0.5,1.2c0,1.3-1,2.9-2.9,4.7
			c-1.7,1.6-3.3,2.7-4.8,3.2c-0.3,1-0.4,1.9-0.4,2.6c0,1.7,0.8,2.6,2.3,2.6c1.5,0,3.1-0.6,4.9-1.8c1.6-1,2.9-2.2,4.1-3.6
			c0.3-0.4,0.6-0.6,0.9-0.6C257,67.9,257.1,68,257.1,68.2z M251,61.5c0-0.5-0.2-0.7-0.7-0.7c-0.6,0-1.5,1-2.7,2.9
			c-1,1.6-1.7,2.9-1.9,3.8c1.1-0.5,2.2-1.3,3.4-2.4C250.3,63.7,251,62.5,251,61.5z"/>
	</g>
	<g>
		<path fill="#FFFFFF" d="M147.8,21.1c0,0-0.3-0.2-1.1,0c-0.7,0.2-1.7,0.9-2.8,1.8c-1.1,1-2.3,2.4-3.6,4.1c-0.6,0.8-1.3,1.8-1.9,2.8
			c-0.7,1-1.4,2-2.1,3.2c-1.4,2.2-2.8,4.7-4.4,7.3c-1.5,2.7-3,5.5-4.6,8.4c-1.6,2.9-3.1,6-4.8,9c-1.8,3.3-3.8,6.4-5.9,9.4
			c-2.1,3-4.5,5.9-7,8.6c-1.3,1.4-2.5,2.6-4.1,3.9c-1.2,1-3,2.4-4.6,3.2c-3.2,1.9-6.7,3-10,3.5c-3.3,0.6-6.4,0.5-9.2,0.3
			c-2.8-0.2-5.3-0.8-7.5-1.4c-2.2-0.6-4-1.2-5.5-1.8c-1.5-0.5-2.6-1.1-3.4-1.5c-0.8-0.4-1.2-0.6-1.2-0.6l0.1-0.4
			c0,0,0.4,0.1,1.2,0.4c0.8,0.2,2,0.6,3.5,1c1.5,0.4,3.4,0.8,5.5,1.2c2.1,0.4,4.6,0.6,7.2,0.7c2.7,0,5.6-0.2,8.5-0.8
			c3-0.7,6-1.8,8.8-3.6c1.4-0.8,2.7-1.9,4-3c1.2-1.2,2.4-2.4,3.7-3.7c2.3-2.6,4.6-5.4,6.6-8.3c2.1-2.9,4-5.9,5.8-8.9
			c1.8-3.1,3.4-6.1,5.1-9c1.7-2.9,3.4-5.6,5.1-8.2c1.7-2.6,3.3-5,5-7.1c0.8-1.1,1.6-2.1,2.4-3c0.8-1,1.5-1.8,2.3-2.6
			c1.5-1.6,2.9-2.9,4.2-3.8c1.3-0.9,2.5-1.4,3.4-1.5c0.9-0.1,1.4,0.2,1.4,0.2L147.8,21.1z"/>
		<g>
			<path fill="#FFFFFF" d="M161.6,47.3c-3.7-2.2-8.2-4-13.6-5.2c4.7-0.7,9.2-2.2,13.5-4.5c5.8-2.9,8.7-6.1,8.7-9.7
				c0-4.4-4.8-7.6-14.2-9.6c-6.1-1.3-12.7-2-19.8-2c-11.9,0-21.8,1.6-29.5,4.7c-0.9,0.4-1.8,1.1-2.8,2.2c-1,1.1-1.5,2.1-1.5,3
				c0,0.6,0.3,0.9,0.9,0.9c0.2,0,0.5-0.1,0.9-0.2c11.6-4.8,24-7.2,37.4-7.2c5,0,9.8,0.4,14.5,1.3c6.9,1.3,10.4,3.3,10.4,6
				c0,1.2-0.9,2.6-2.6,4.2c-4.2,3.9-10.7,6.7-19.7,8.6c-2.4,0.4-4.2,0.6-5.3,0.8c-2.2,0.4-3.2,1.2-3.2,2.6c0,0.7,0.5,1,1.4,1h2.6
				c5.5,0,10.7,1,15.6,3c6.3,2.7,9.5,6.3,9.5,11c0,2.7-1.2,5.7-3.6,8.8c0,0,0,0,0,0c0,0,0,0,0,0c-0.4,0.6-0.8,1.1-1.2,1.6
				c-0.2,0.3-0.5,0.7-0.9,0.9c-3.9,4.2-7.5,7-13.3,9.1c0.5,0.8,0.6,2.4-0.2,3.3c7.2-2.4,12.1-5.4,16.7-9.7c0,0,0,0,0,0
				c0.3-0.3,0.6-0.6,1-0.9c0.2-0.2,0.3-0.3,0.5-0.5c0,0,0,0,0,0c0.1-0.2,0.2-0.4,0.5-0.6c0,0,0,0,0-0.1h0c3.6-4.2,5.5-8,5.5-11.5
				C169.4,54.3,166.8,50.5,161.6,47.3z"/>
		</g>
		<path fill="#FFFFFF" d="M152.9,120.5c0,0-0.2,0.3-0.6,0.8c-0.4,0.5-1.1,1.2-2,2c-1.9,1.7-5.2,3.3-9,5.7c-3.9,2.4-8.7,5.3-14.2,8.6
			c-5.5,3.3-11.8,6.9-19.1,10c-7.3,3.1-15.5,5.8-24.5,7.1c-9,1.2-18.7,1-28.5-0.9c-9.7-2-19.5-5.4-28.4-11c-2.3-1.3-4.4-2.9-6.5-4.5
			c-2.1-1.6-4-3.5-5.7-5.6c-3.4-4.1-6-9.1-7-14.4c-1-5.3-0.4-11,1.7-16c2.1-5,5.6-9.3,9.5-12.8c7.7-7.1,16.5-12.8,25.7-16.5
			c9.3-3.7,18.9-5.4,28-5.9c4.6-0.4,9.1,0,13.3,0.9c4.2,0.8,8.2,2,12,3.2c7.5,2.5,14.3,4.9,20.4,6.5c6.1,1.6,11.5,2.4,16,2.4
			c4.4,0,7.8-0.8,10.1-1.4c1.1-0.3,2-0.5,2.6-0.6c0.6-0.1,0.9-0.1,0.9-0.1l0.9,2.1c0,0-0.3,0.2-0.9,0.5c-0.6,0.3-1.5,0.8-2.7,1.1
			c-2.5,0.7-6.2,1.4-11,1.3c-4.7-0.1-10.4-1-16.6-2.8c-6.2-1.8-13-4.4-20.4-7c-3.7-1.3-7.6-2.5-11.7-3.4c-4.1-0.9-8.4-1.2-12.8-0.8
			c-8.9,0.6-18.3,2.2-27.3,5.9c-9,3.6-17.5,9.3-25.1,16.1c-3.9,3.3-7.1,7.3-9.1,11.9c-2,4.6-2.6,9.8-1.7,14.8
			c0.9,5,3.2,9.7,6.5,13.6c3.2,4,7.4,7,11.7,9.8c8.6,5.5,18.3,9,27.8,11c9.6,1.9,19.1,2.2,28,1.1c8.9-1.2,17-3.8,24.2-6.8
			c7.2-3,13.5-6.6,19-9.8c5.5-3.3,10.3-6.1,14.2-8.5c3.9-2.4,7.2-4,9-5.6c0.9-0.8,1.6-1.4,2-1.9c0.4-0.5,0.6-0.8,0.6-0.8
			L152.9,120.5z"/>
	</g>
	<g>
		<path fill="#FFFFFF" d="M154.2,104.8L154.2,104.8c0.4-1,1.6-4.7,2-6.4c0.1-0.5,0.1-0.6,0.1-0.8c0-0.2-0.1-0.4-0.7-0.4
			c-0.1,0-0.1-0.1-0.1-0.1c0-0.1,0.1-0.1,0.2-0.1c0.7,0,1.2,0,1.3,0c0.1,0,0.7,0,1.1,0c0.1,0,0.2,0,0.2,0.1c0,0.1,0,0.1-0.1,0.1
			c0,0-0.3,0-0.4,0.1c-0.4,0.1-0.6,0.6-0.9,1.3c-0.6,1.6-1.9,5.7-2.4,7.1c-0.3,0.9-0.4,1.1-0.6,1.1c-0.1,0-0.3-0.2-0.4-0.7l-2.6-7
			c-0.4,1.1-2.2,5.8-2.7,7c-0.2,0.5-0.3,0.7-0.5,0.7c-0.1,0-0.2-0.1-0.5-1l-2.3-7.5c-0.2-0.7-0.3-0.8-0.7-1
			c-0.2-0.1-0.5-0.1-0.6-0.1c-0.1,0-0.1,0-0.1-0.1c0-0.1,0.1-0.1,0.2-0.1c0.7,0,1.4,0,1.6,0c0.1,0,0.7,0,1.4,0c0.2,0,0.2,0,0.2,0.1
			c0,0.1-0.1,0.1-0.1,0.1c-0.1,0-0.3,0-0.5,0.1c-0.1,0-0.2,0.1-0.2,0.3c0,0.2,0.1,0.6,0.3,1.2c0.2,0.8,1.6,5.5,1.7,6h0l2.8-7.1
			c0.2-0.5,0.3-0.6,0.4-0.6c0.1,0,0.2,0.2,0.4,0.6L154.2,104.8z"/>
		<path fill="#FFFFFF" d="M161.4,100.8c0-2,0-2.3,0-2.7c0-0.4-0.1-0.6-0.5-0.7c-0.1,0-0.3,0-0.4,0c0,0-0.1-0.1-0.1-0.1
			c0-0.1,0.1-0.1,0.2-0.1c0.6,0,1.5,0,1.5,0c0.1,0,2.8,0,3.1,0c0.3,0,0.5-0.1,0.6-0.1c0.1,0,0.1-0.1,0.2-0.1c0,0,0.1,0.1,0.1,0.1
			c0,0.1-0.1,0.2-0.1,0.6c0,0.1,0,0.7-0.1,0.8c0,0.1-0.1,0.1-0.1,0.1c-0.1,0-0.1-0.1-0.1-0.2c0-0.1,0-0.3-0.1-0.4
			c-0.1-0.2-0.2-0.3-0.9-0.4c-0.2,0-1.8,0-1.9,0c-0.1,0-0.1,0-0.1,0.1v3.5c0,0.1,0,0.1,0.1,0.1c0.2,0,1.9,0,2.2,0
			c0.3,0,0.5,0,0.6-0.2c0.1-0.1,0.2-0.2,0.2-0.2c0,0,0.1,0,0.1,0.1c0,0.1-0.1,0.3-0.1,0.7c0,0.3-0.1,0.7-0.1,0.8
			c0,0.1,0,0.2-0.1,0.2c-0.1,0-0.1,0-0.1-0.1c0-0.1,0-0.3-0.1-0.4c0-0.2-0.2-0.3-0.7-0.4c-0.4,0-1.8-0.1-2-0.1c-0.1,0-0.1,0-0.1,0.1
			v1.1c0,0.4,0,1.9,0,2.2c0,0.9,0.3,1,1.6,1c0.3,0,1,0,1.3-0.1c0.3-0.1,0.5-0.4,0.6-0.9c0-0.1,0.1-0.2,0.1-0.2
			c0.1,0,0.1,0.1,0.1,0.2c0,0.1-0.1,1-0.2,1.2c-0.1,0.3-0.2,0.3-0.7,0.3c-1,0-1.8,0-2.3,0c-0.6,0-0.9,0-1.1,0c0,0-0.3,0-0.6,0
			c-0.3,0-0.6,0-0.8,0c-0.1,0-0.2,0-0.2-0.1c0,0,0-0.1,0.1-0.1c0.1,0,0.3,0,0.4-0.1c0.3,0,0.3-0.3,0.3-0.7c0.1-0.5,0.1-1.5,0.1-2.8
			V100.8z"/>
		<path fill="#FFFFFF" d="M170.6,100.8c0-2,0-2.3,0-2.7c0-0.4-0.1-0.6-0.5-0.7c-0.1,0-0.3,0-0.4,0c0,0-0.1-0.1-0.1-0.1
			c0-0.1,0.1-0.1,0.2-0.1c0.6,0,1.5,0,1.5,0c0.1,0,1,0,1.8,0c1.3,0,3.7-0.1,5.3,1.5c0.7,0.7,1.3,1.7,1.3,3.2c0,1.6-0.7,2.8-1.4,3.6
			c-0.6,0.6-1.8,1.5-4,1.5c-0.6,0-1.3,0-1.8-0.1c-0.6,0-1-0.1-1.1-0.1c0,0-0.3,0-0.5,0c-0.3,0-0.6,0-0.8,0c-0.1,0-0.2,0-0.2-0.1
			c0,0,0-0.1,0.1-0.1c0.1,0,0.3,0,0.4-0.1c0.3-0.1,0.3-0.3,0.3-0.7c0.1-0.5,0.1-1.5,0.1-2.8V100.8z M171.8,102.2c0,1.3,0,2.5,0,2.8
			c0,0.3,0,0.8,0.1,0.9c0.2,0.2,0.6,0.5,2.2,0.5c1.2,0,2.3-0.4,3.1-1.2c0.7-0.6,1-1.9,1-3c0-1.6-0.7-2.6-1.2-3.2
			c-1.2-1.3-2.7-1.4-4.3-1.4c-0.3,0-0.7,0-0.8,0.1c-0.1,0-0.2,0.1-0.2,0.3V102.2z"/>
		<path fill="#FFFFFF" d="M183.5,100.8c0-2,0-2.3,0-2.7c0-0.4-0.1-0.6-0.5-0.7c-0.1,0-0.3,0-0.4,0c0,0-0.1-0.1-0.1-0.1
			c0-0.1,0.1-0.1,0.2-0.1c0.6,0,1.5,0,1.5,0c0.1,0,1,0,1.8,0c1.3,0,3.7-0.1,5.3,1.5c0.7,0.7,1.3,1.7,1.3,3.2c0,1.6-0.7,2.8-1.4,3.6
			c-0.6,0.6-1.8,1.5-4,1.5c-0.6,0-1.3,0-1.8-0.1c-0.6,0-1-0.1-1.1-0.1c0,0-0.3,0-0.5,0c-0.3,0-0.6,0-0.8,0c-0.1,0-0.2,0-0.2-0.1
			c0,0,0-0.1,0.1-0.1c0.1,0,0.3,0,0.4-0.1c0.3-0.1,0.3-0.3,0.3-0.7c0.1-0.5,0.1-1.5,0.1-2.8V100.8z M184.7,102.2c0,1.3,0,2.5,0,2.8
			c0,0.3,0,0.8,0.1,0.9c0.2,0.2,0.6,0.5,2.2,0.5c1.2,0,2.3-0.4,3.1-1.2c0.7-0.6,1-1.9,1-3c0-1.6-0.7-2.6-1.2-3.2
			c-1.2-1.3-2.7-1.4-4.3-1.4c-0.3,0-0.7,0-0.8,0.1c-0.1,0-0.2,0.1-0.2,0.3V102.2z"/>
		<path fill="#FFFFFF" d="M197.5,103c0,1.2,0,2.2,0.1,2.8c0,0.4,0.1,0.6,0.5,0.7c0.2,0,0.5,0.1,0.6,0.1c0.1,0,0.1,0.1,0.1,0.1
			c0,0.1-0.1,0.1-0.2,0.1c-0.7,0-1.6,0-1.6,0c-0.1,0-0.9,0-1.3,0c-0.1,0-0.2,0-0.2-0.1c0,0,0-0.1,0.1-0.1c0.1,0,0.3,0,0.4-0.1
			c0.3-0.1,0.3-0.3,0.3-0.7c0.1-0.5,0.1-1.5,0.1-2.8v-2.2c0-2,0-2.3,0-2.7c0-0.4-0.1-0.6-0.4-0.7c-0.1,0-0.3,0-0.4,0
			c-0.1,0-0.1-0.1-0.1-0.1c0-0.1,0.1-0.1,0.2-0.1c0.4,0,1.3,0,1.3,0c0.1,0,0.9,0,1.3,0c0.1,0,0.2,0,0.2,0.1c0,0-0.1,0.1-0.1,0.1
			c-0.1,0-0.2,0-0.3,0c-0.4,0.1-0.4,0.3-0.5,0.7c0,0.4,0,0.8,0,2.7V103z"/>
		<path fill="#FFFFFF" d="M203.3,105c0,1,0.1,1.4,0.5,1.5c0.2,0.1,0.5,0.1,0.7,0.1c0.1,0,0.1,0,0.1,0.1c0,0.1-0.1,0.1-0.2,0.1
			c-0.7,0-1.3,0-1.4,0c-0.1,0-0.7,0-1.3,0c-0.1,0-0.2,0-0.2-0.1c0-0.1,0-0.1,0.1-0.1c0.1,0,0.3,0,0.5-0.1c0.3-0.1,0.4-0.4,0.4-1.6
			v-7.3c0-0.5,0.1-0.6,0.2-0.6c0.2,0,0.4,0.3,0.5,0.4c0.2,0.2,2.1,2.2,4.2,4.3c1.3,1.3,2.7,2.9,3.1,3.3l-0.1-6.4
			c0-0.8-0.1-1.1-0.5-1.2c-0.2,0-0.5-0.1-0.6-0.1c-0.1,0-0.1-0.1-0.1-0.1c0-0.1,0.1-0.1,0.3-0.1c0.6,0,1.2,0,1.4,0
			c0.2,0,0.6,0,1.1,0c0.1,0,0.2,0,0.2,0.1c0,0-0.1,0.1-0.1,0.1c-0.1,0-0.2,0-0.3,0c-0.4,0.1-0.5,0.3-0.5,1.1l0,7.5
			c0,0.8,0,0.9-0.1,0.9c-0.1,0-0.3-0.1-1-0.8c-0.1-0.1-2-2-3.4-3.4c-1.5-1.6-3-3.2-3.4-3.6L203.3,105z"/>
		<path fill="#FFFFFF" d="M222.1,103.5c0-1,0-1.2-0.6-1.3c-0.1,0-0.3,0-0.4,0c0,0-0.1-0.1-0.1-0.1c0-0.1,0.1-0.1,0.2-0.1
			c0.6,0,1.5,0,1.6,0c0.1,0,0.9,0,1.3,0c0.2,0,0.2,0,0.2,0.1c0,0-0.1,0.1-0.1,0.1c-0.1,0-0.2,0-0.3,0c-0.4,0.1-0.5,0.3-0.5,0.7
			c0,0.4,0,0.8,0,1.3v1.4c0,0.6,0,0.6-0.2,0.7c-0.8,0.4-2,0.6-2.8,0.6c-1,0-2.9-0.1-4.3-1.4c-0.8-0.7-1.6-2-1.6-3.6
			c0-2,1-3.5,2.2-4.2c1.2-0.7,2.5-0.8,3.5-0.8c0.8,0,1.8,0.1,2,0.2c0.3,0.1,0.7,0.1,1.1,0.1c0.1,0,0.2,0.1,0.2,0.1
			c0,0.2-0.1,0.5-0.1,1.8c0,0.2-0.1,0.3-0.1,0.3c-0.1,0-0.1-0.1-0.1-0.2c0-0.2-0.1-0.5-0.3-0.8c-0.3-0.5-1.3-1-3-1
			c-0.8,0-1.8,0.1-2.8,0.8c-0.8,0.6-1.3,1.7-1.3,3.2c0,1.8,0.9,3.1,1.4,3.5c1,1,2.2,1.3,3.4,1.3c0.5,0,1.1,0,1.4-0.2
			c0.2-0.1,0.3-0.1,0.3-0.4V103.5z"/>
		<path fill="#FFFFFF" d="M241.7,97.4c0.2-0.4,0.2-0.5,0.3-0.5c0.1,0,0.2,0.2,0.3,0.5c0.2,0.5,2.3,5.8,3.2,7.7
			c0.5,1.1,0.8,1.3,1.1,1.4c0.2,0.1,0.4,0.1,0.5,0.1c0.1,0,0.2,0,0.2,0.1c0,0.1-0.1,0.1-0.3,0.1c-0.2,0-1.2,0-2.1,0
			c-0.3,0-0.5,0-0.5-0.1c0-0.1,0-0.1,0.1-0.1c0.1,0,0.2-0.1,0.1-0.3l-1.2-2.9c0-0.1,0-0.1-0.1-0.1h-3c-0.1,0-0.1,0-0.1,0.1l-0.7,2
			c-0.1,0.3-0.2,0.6-0.2,0.9c0,0.3,0.2,0.3,0.4,0.3h0.1c0.1,0,0.1,0,0.1,0.1c0,0.1-0.1,0.1-0.2,0.1c-0.3,0-1,0-1.2,0
			c-0.1,0-0.8,0-1.3,0c-0.2,0-0.3,0-0.3-0.1c0-0.1,0.1-0.1,0.1-0.1c0.1,0,0.3,0,0.4,0c0.6-0.1,0.9-0.5,1.1-1.2L241.7,97.4z
			 M243.2,102.7C243.2,102.7,243.2,102.6,243.2,102.7l-1.3-3.6c-0.1-0.2-0.1-0.2-0.2,0l-1.2,3.5c0,0.1,0,0.1,0,0.1H243.2z"/>
		<path fill="#FFFFFF" d="M256.1,103.5c0-1,0-1.2-0.6-1.3c-0.1,0-0.3,0-0.4,0c0,0-0.1-0.1-0.1-0.1c0-0.1,0.1-0.1,0.2-0.1
			c0.6,0,1.5,0,1.6,0c0.1,0,0.9,0,1.3,0c0.2,0,0.2,0,0.2,0.1c0,0-0.1,0.1-0.1,0.1c-0.1,0-0.2,0-0.3,0c-0.4,0.1-0.5,0.3-0.5,0.7
			c0,0.4,0,0.8,0,1.3v1.4c0,0.6,0,0.6-0.2,0.7c-0.8,0.4-2,0.6-2.8,0.6c-1,0-2.9-0.1-4.3-1.4c-0.8-0.7-1.6-2-1.6-3.6
			c0-2,1-3.5,2.2-4.2c1.2-0.7,2.5-0.8,3.5-0.8c0.8,0,1.8,0.1,2,0.2c0.3,0.1,0.7,0.1,1.1,0.1c0.1,0,0.2,0.1,0.2,0.1
			c0,0.2-0.1,0.5-0.1,1.8c0,0.2-0.1,0.3-0.1,0.3c-0.1,0-0.1-0.1-0.1-0.2c0-0.2-0.1-0.5-0.3-0.8c-0.3-0.5-1.3-1-3-1
			c-0.8,0-1.8,0.1-2.8,0.8c-0.8,0.6-1.3,1.7-1.3,3.2c0,1.8,0.9,3.1,1.4,3.5c1,1,2.2,1.3,3.4,1.3c0.5,0,1.1,0,1.4-0.2
			c0.2-0.1,0.3-0.1,0.3-0.4V103.5z"/>
		<path fill="#FFFFFF" d="M262.2,100.8c0-2,0-2.3,0-2.7c0-0.4-0.1-0.6-0.5-0.7c-0.1,0-0.3,0-0.4,0c0,0-0.1-0.1-0.1-0.1
			c0-0.1,0.1-0.1,0.2-0.1c0.6,0,1.5,0,1.5,0c0.1,0,2.8,0,3.1,0c0.3,0,0.5-0.1,0.6-0.1c0.1,0,0.1-0.1,0.2-0.1c0,0,0.1,0.1,0.1,0.1
			c0,0.1-0.1,0.2-0.1,0.6c0,0.1,0,0.7-0.1,0.8c0,0.1-0.1,0.1-0.1,0.1c-0.1,0-0.1-0.1-0.1-0.2c0-0.1,0-0.3-0.1-0.4
			c-0.1-0.2-0.2-0.3-0.9-0.4c-0.2,0-1.8,0-1.9,0c-0.1,0-0.1,0-0.1,0.1v3.5c0,0.1,0,0.1,0.1,0.1c0.2,0,1.9,0,2.2,0
			c0.3,0,0.5,0,0.6-0.2c0.1-0.1,0.2-0.2,0.2-0.2c0,0,0.1,0,0.1,0.1c0,0.1-0.1,0.3-0.1,0.7c0,0.3-0.1,0.7-0.1,0.8
			c0,0.1,0,0.2-0.1,0.2c-0.1,0-0.1,0-0.1-0.1c0-0.1,0-0.3-0.1-0.4c0-0.2-0.2-0.3-0.7-0.4c-0.4,0-1.8-0.1-2-0.1c-0.1,0-0.1,0-0.1,0.1
			v1.1c0,0.4,0,1.9,0,2.2c0,0.9,0.3,1,1.6,1c0.3,0,1,0,1.3-0.1c0.3-0.1,0.5-0.4,0.6-0.9c0-0.1,0.1-0.2,0.1-0.2
			c0.1,0,0.1,0.1,0.1,0.2c0,0.1-0.1,1-0.2,1.2c-0.1,0.3-0.2,0.3-0.7,0.3c-1,0-1.8,0-2.3,0c-0.6,0-0.9,0-1.1,0c0,0-0.3,0-0.6,0
			c-0.3,0-0.6,0-0.8,0c-0.1,0-0.2,0-0.2-0.1c0,0,0-0.1,0.1-0.1c0.1,0,0.3,0,0.4-0.1c0.3,0,0.3-0.3,0.3-0.7c0.1-0.5,0.1-1.5,0.1-2.8
			V100.8z"/>
		<path fill="#FFFFFF" d="M271.9,105c0,1,0.1,1.4,0.5,1.5c0.2,0.1,0.5,0.1,0.7,0.1c0.1,0,0.1,0,0.1,0.1c0,0.1-0.1,0.1-0.2,0.1
			c-0.7,0-1.3,0-1.4,0c-0.1,0-0.7,0-1.3,0c-0.1,0-0.2,0-0.2-0.1c0-0.1,0-0.1,0.1-0.1c0.1,0,0.3,0,0.5-0.1c0.3-0.1,0.4-0.4,0.4-1.6
			v-7.3c0-0.5,0.1-0.6,0.2-0.6c0.2,0,0.4,0.3,0.5,0.4c0.2,0.2,2.1,2.2,4.2,4.3c1.3,1.3,2.7,2.9,3.1,3.3l-0.1-6.4
			c0-0.8-0.1-1.1-0.5-1.2c-0.2,0-0.5-0.1-0.6-0.1c-0.1,0-0.1-0.1-0.1-0.1c0-0.1,0.1-0.1,0.3-0.1c0.6,0,1.2,0,1.4,0
			c0.2,0,0.6,0,1.1,0c0.1,0,0.2,0,0.2,0.1c0,0-0.1,0.1-0.1,0.1c-0.1,0-0.2,0-0.3,0c-0.4,0.1-0.5,0.3-0.5,1.1l0,7.5
			c0,0.8,0,0.9-0.1,0.9c-0.1,0-0.3-0.1-1-0.8c-0.1-0.1-2-2-3.4-3.4c-1.5-1.6-3-3.2-3.4-3.6L271.9,105z"/>
		<path fill="#FFFFFF" d="M284.6,105.5c-1.3-1.1-1.6-2.6-1.6-3.8c0-0.9,0.3-2.3,1.5-3.5c0.8-0.8,2-1.4,4-1.4c0.5,0,1.3,0,1.9,0.1
			c0.5,0.1,0.9,0.2,1.3,0.2c0.1,0,0.2,0.1,0.2,0.1c0,0.1,0,0.3-0.1,0.7c0,0.4,0,1.1,0,1.3c0,0.2-0.1,0.3-0.2,0.3
			c-0.1,0-0.1-0.1-0.1-0.3c0-0.5-0.2-1-0.6-1.3c-0.5-0.4-1.4-0.7-2.6-0.7c-1.7,0-2.5,0.4-3,0.9c-1,0.9-1.2,2-1.2,3.3
			c0,2.4,1.9,4.6,4.7,4.6c1,0,1.6-0.1,2.2-0.6c0.3-0.3,0.5-0.8,0.5-1.1c0-0.1,0-0.2,0.1-0.2c0.1,0,0.1,0.1,0.1,0.2
			c0,0.1-0.2,1.2-0.3,1.6c-0.1,0.2-0.1,0.3-0.3,0.4c-0.5,0.2-1.5,0.3-2.4,0.3C286.9,106.9,285.6,106.4,284.6,105.5z"/>
		<path fill="#FFFFFF" d="M297.7,103.4c0-0.7-0.1-0.9-0.3-1.3c-0.1-0.2-1.9-3-2.3-3.7c-0.3-0.5-0.6-0.8-0.9-0.9
			c-0.2-0.1-0.4-0.2-0.6-0.2c-0.1,0-0.1-0.1-0.1-0.1c0-0.1,0-0.1,0.2-0.1c0.3,0,1.2,0,1.3,0c0.1,0,0.6,0,1.1,0c0.2,0,0.2,0,0.2,0.1
			c0,0-0.1,0.1-0.2,0.1c-0.1,0-0.2,0.1-0.2,0.2c0,0.2,0.1,0.3,0.2,0.5l2.4,4c0.3-0.5,1.9-3.3,2.2-3.7c0.2-0.3,0.2-0.5,0.2-0.7
			c0-0.2-0.1-0.3-0.2-0.3c-0.1,0-0.2-0.1-0.2-0.2c0,0,0.1-0.1,0.2-0.1c0.3,0,0.8,0,0.9,0c0.1,0,1,0,1.3,0c0.1,0,0.2,0,0.2,0.1
			c0,0.1-0.1,0.1-0.2,0.1c-0.1,0-0.4,0-0.6,0.2c-0.3,0.2-0.4,0.3-0.7,0.6c-0.4,0.5-2.3,3.5-2.6,4c-0.2,0.4-0.2,0.9-0.2,1.3v1.1
			c0,0.2,0,0.7,0,1.3c0,0.4,0.1,0.6,0.5,0.7c0.2,0,0.5,0.1,0.6,0.1c0.1,0,0.1,0.1,0.1,0.1c0,0.1-0.1,0.1-0.2,0.1c-0.7,0-1.6,0-1.7,0
			c-0.1,0-0.9,0-1.3,0c-0.1,0-0.2,0-0.2-0.1c0,0,0-0.1,0.1-0.1c0.1,0,0.3,0,0.4-0.1c0.3-0.1,0.4-0.3,0.4-0.7c0-0.5,0-1.1,0-1.3
			V103.4z"/>
	</g>
</g>
</svg>
