<svg xmlns="http://www.w3.org/2000/svg" width="1000" height="1000" viewBox="0 0 999.99999 999.99999"><path d="M-555.04-387.386c-1.075-.335-7.054-4.111-13.286-8.392-15.317-10.52-15.48-10.796-15.782-26.636l-.19-9.994h4.316c4.248 0 4.452.083 12.842 5.185 15.58 9.475 15.768 9.475 30.064-.048l7.711-5.137h9.236v9.658c0 8.583-.115 10.015-1.037 12.86-.57 1.76-1.763 4.088-2.65 5.174-2.093 2.562-22.771 16.462-25.865 17.387-2.648.792-2.628.792-5.358-.057zm46.895-15.82c0-.33.518-3.331 1.152-6.67 1.105-5.82 1.152-6.875 1.152-25.567 0-10.723-.125-19.496-.277-19.496-.153 0-9.434 6.124-20.626 13.609l-20.347 13.608-4.61.02-4.608.02-21.202-12.982c-11.66-7.14-21.772-13.444-22.469-14.01-1.707-1.385-1.636-3.56.165-5.029.787-.642 11.01-6.84 22.715-13.774 23.069-13.665 24.7-14.357 29.548-12.529 4.187 1.58 43.175 23.69 44.1 25.01.599.854.692 1.493.362 2.467-.259.762-.446 10.303-.446 22.69 0 18.867.1 21.836.85 25.304.467 2.162.99 4.83 1.16 5.929l.312 1.998h-3.466c-1.906 0-3.465-.27-3.465-.598zm395.559 13.488c-18.993-2.631-35.11-15.832-41.037-33.613-1.988-5.962-2.542-9.485-2.542-16.159 0-6.674.554-10.197 2.542-16.159 4.785-14.355 16.924-26.489 31.285-31.27 5.97-1.989 9.494-2.542 16.173-2.542 6.68 0 10.202.553 16.173 2.541 14.36 4.782 26.5 16.916 31.285 31.271 1.988 5.962 2.542 9.485 2.542 16.16 0 6.674-.554 10.196-2.543 16.163-4.015 12.045-13.504 22.899-25.14 28.755-3.341 1.682-8.512 3.429-12.705 4.292-3.776.778-12.309 1.077-16.033.56zm14.268-6.56l1.373-.32-1.766-.451c-2.104-.539-5.492-2.523-8.186-4.793-2.252-1.898-2.36-2.224-3.592-10.789-.998-6.946-2.003-10.037-3.952-12.15l-1.497-1.623-4.115-.426c-6.399-.664-9.61-2.534-11.939-6.956-.893-1.695-1.041-2.457-1.038-5.312.006-2.92.156-3.648 1.229-5.881.673-1.402 1.763-3.122 2.422-3.823 1.19-1.265 5.97-3.703 8.235-4.2 1.836-.403 4.091.413 6.748 2.44 7.054 5.385 9.517 6.607 11.164 5.537.437-.283 2.73-1.492 5.094-2.686 4.713-2.378 5.565-3.18 4.331-4.081-.738-.54-.698-.635 1.084-2.538 2.023-2.163 2.075-2.85.269-3.597-2.005-.83-5.032.627-6.144 2.958-.538 1.128-.584 1.675-.245 2.943l.416 1.557h-1.339c-2.036 0-3.275-.84-6.55-4.448-3.492-3.843-4.676-4.501-6.902-3.835-1.217.364-1.57.69-1.779 1.638-.143.65-.7 1.47-1.237 1.823-1.89 1.237-6.728.467-5.6-.892.257-.31 1.018-.705 1.693-.878 1.665-.43 1.764-1.56.26-3-.656-.627-1.192-1.262-1.192-1.41 0-.148.872-.353 1.939-.455 2.638-.254 6.456-2.182 6.621-3.345.18-1.268 1.923-1.157 4.645.294 2.728 1.455 3.633 1.473 4.916.098 3.603-3.86 1.895-6.603-2.88-4.625-.963.4-1.212-.37-.596-1.843 1.025-2.451 7.186-6.67 10.534-7.213 1.116-.18 1.72-.036 2.666.637 1.708 1.216 4.118 1.492 5.119.587 1.2-1.085.937-1.714-1.088-2.597-4.51-1.967-11.973-3.473-17.164-3.462-7.402.014-15.856 2.354-22.167 6.135-3.801 2.278-3.804 2.282-2.498 3.416.954.83 1.053 1.086.652 1.688-.26.39-.992 1.592-1.627 2.67-2.674 4.538-6.467 7.467-10.252 7.915l-2.075.245-1.687 3.566c-.928 1.962-2.036 4.978-2.463 6.703-1.371 5.538-1.355 5.268-.34 5.653 1.366.52 3.439 2.384 3.849 3.461.302.795.14 1.207-.992 2.53-1.613 1.883-2.995 4.688-3.253 6.6-.247 1.827.814 6.058 2.552 10.184 6.054 14.366 18.725 24.146 34.54 26.66 2.481.394 11.668.189 13.804-.309zm6.812-1.887c12.435-4.258 22.944-15.02 27.097-27.75 1.254-3.842 1.285-4.344.233-3.687-1.064.664-1.466.167-2.279-2.822-.953-3.504-1.798-4.05-6.673-4.312-2.095-.113-4.009-.335-4.254-.495-.245-.159-.983-.101-1.64.128-.933.325-2.06.237-5.123-.397-4.786-.991-4.58-.99-5.542-.03-.973.972-1.047 3.374-.136 4.38.837.925 2.452.904 5.565-.072 3.038-.951 3.594-.969 3.594-.112 0 .367-1.665 3.587-3.7 7.156-7.86 13.78-9.04 16.697-9.594 23.706-.283 3.578-.393 3.96-1.396 4.822l-1.09.936 1.123-.265c.617-.145 2.334-.679 3.815-1.186z" fill="#020202"/><path d="M107.438-398.712c-12.515-3.357-22.908-6.163-23.096-6.237-.324-.128-.342-2.101-.342-37.616 0-33.324.033-37.482.296-37.482.347 0 46.331 12.273 46.595 12.436.108.067.18 15.02.18 37.575v37.464l-.44-.019c-.242-.01-10.679-2.765-23.193-6.121zm29.687-31.324c0-22.555.072-37.508.18-37.575.215-.133 46.214-12.436 46.497-12.436.133 0 .198 12.339.198 37.547v37.548l-1.123.31c-5.468 1.513-45.229 12.07-45.456 12.07-.263 0-.296-4.131-.296-37.464zm-21.61-48.142c-10.115-2.719-18.53-4.997-18.702-5.063-.275-.106-.313-.683-.313-4.726 0-2.935.07-4.605.195-4.605.107 0 8.567 4.194 18.8 9.32l18.604 9.32 18.603-9.32c10.23-5.126 18.69-9.32 18.798-9.32.235 0 .276 9.125.042 9.27-.161.1-37.5 10.118-37.589 10.085-.028-.01-8.325-2.243-18.439-4.961z" fill="#010101"/><path d="M327.256-389.345c-.77-1.132-1.399-7.822-1.399-14.865 0-12.645.05-12.852 3.961-16.36 5.374-4.821 16.397-9.378 23.282-9.625l5.632-.202 8.173 15.701c4.495 8.636 8.5 15.696 8.9 15.69.4-.01 4.69-7.072 9.534-15.701l8.807-15.69 5.917.217c7.151.262 19.301 4.745 23.06 8.508 2.442 2.447 2.734 4.294 2.734 17.285 0 9.895-.518 14.955-1.621 15.824-1.2.944-13.864 1.277-48.601 1.277-45.065 0-47.037-.084-48.379-2.059zm41.506-38.832c-12.852-2.72-21.283-11.388-21.283-21.883 0-4.443 2.14-11.738 3.443-11.738.262 0 5.978 1.88 12.703 4.177l12.226 4.177 12.494-4.206c14.249-4.797 15.03-4.609 16.672 4.02 3.056 16.05-16.339 29.667-36.255 25.453zm-39.188-13.482c-2.878-1.32-3.1-5.561-.383-7.337 1.46-.954 2.084-4.227 2.365-12.415l.382-11.12 22.044-7.377 22.044-7.378 21.875 7.343c20.558 6.901 21.65 7.411 18.132 8.468-2.058.618-11.6 3.767-21.202 6.997-9.603 3.23-18.257 5.842-19.23 5.804-.974-.038-10.588-3.069-21.365-6.734l-19.595-6.666-.387 10.6c-.305 8.355.052 10.982 1.69 12.406 2.863 2.493 2.6 6.134-.538 7.457-3.111 1.311-2.865 1.314-5.832-.048z" fill="#030303"/><path d="M-393.845-391.61c-6.17-13.197 6.62-17.006 51.852-15.441 38.112 1.317 46.696 3.173 46.696 10.097 0 6.94-8.7 8.773-47.795 10.078-31.856 1.063-48.78-.515-50.753-4.734zm0-39.587c-6.17-13.197 6.62-17.005 51.852-15.441 38.112 1.317 46.696 3.173 46.696 10.097 0 6.94-8.7 8.773-47.795 10.078-31.856 1.063-48.78-.515-50.753-4.734zm0-39.587c-6.17-13.197 6.62-17.005 51.852-15.441 38.112 1.317 46.696 3.173 46.696 10.097 0 6.94-8.7 8.773-47.795 10.078-31.856 1.063-48.78-.515-50.753-4.734zm1010.378-21.605a50 50 0 0 0-50 50 50 50 0 0 0 50 50 50 50 0 0 0 50-50 50 50 0 0 0-50-50zm26.641 39.476c2.249 0 4.08.599 5.495 1.798 1.415 1.19 2.098 2.66 2.052 4.412l-.029.085h-3.977c0-.947-.318-1.71-.955-2.29-.628-.59-1.513-.886-2.656-.886-1.096 0-1.944.243-2.543.73-.6.488-.9 1.111-.9 1.87 0 .693.319 1.265.956 1.714.646.44 1.757.909 3.33 1.405 2.258.628 3.967 1.456 5.129 2.487 1.161 1.03 1.742 2.385 1.742 4.061 0 1.752-.693 3.133-2.08 4.145-1.376 1.012-3.198 1.517-5.465 1.517-2.23 0-4.174-.57-5.832-1.714-1.658-1.152-2.464-2.763-2.417-4.833l.028-.085h3.991c0 1.218.37 2.113 1.11 2.685.75.562 1.79.843 3.12.843 1.115 0 1.967-.23 2.558-.69.59-.458.884-1.071.884-1.84 0-.786-.28-1.42-.843-1.897-.552-.478-1.527-.927-2.922-1.349-2.436-.703-4.276-1.536-5.522-2.501-1.246-.965-1.87-2.286-1.87-3.963s.712-3.044 2.136-4.103c1.433-1.068 3.26-1.602 5.48-1.602zm-60.927.295h4.103v20.459h-4.103v-20.459zm8.178 0h13.982v3.161h-9.88v5.143h8.474v3.162h-8.473v5.846h9.907v3.147h-14.01v-20.459zm16.524 0h4.103v17.312h9.106v3.147h-13.209v-20.459zm11.073 0h15.653v3.161h-5.789v17.298h-4.103v-17.298h-5.761v-3.16zM845-387.824c0-.261-4.535-.765-7.833-.87-.734-.022-1.634-.204-2-.403-.367-.2-1.342-.471-2.167-.605-.825-.134-1.65-.359-1.834-.5-.183-.142-.858-.367-1.5-.5-.641-.135-1.316-.359-1.5-.499-.183-.14-.708-.366-1.166-.503-1.073-.321-5.53-2.49-7.205-3.508-6.89-4.182-13.42-10.894-17.345-17.824-1.485-2.623-3.785-7.82-3.785-8.553 0-.264-.138-.623-.307-.797-.348-.358-.846-2.581-1.564-6.984-.27-1.65-.634-3.05-.81-3.11-.413-.145-.424-9.963-.01-10.112.17-.06.478-1.386.685-2.944.207-1.559.514-3.284.681-3.834.168-.55.694-2.312 1.169-3.917.983-3.321 3.547-8.575 5.977-12.25 2.024-3.058 8.181-9.465 11.347-11.806 4.628-3.422 9.638-6.004 14.5-7.474 3.797-1.148 4.775-1.372 7.5-1.724 1.467-.189 2.717-.49 2.778-.67.15-.435 9.964-.435 10.112 0 .061.18 1.536.54 3.278.802 10.023 1.503 18.504 5.783 26.125 13.185 4.954 4.811 7.65 8.51 10.463 14.354 1.968 4.088 3.473 9.08 4.071 13.5.199 1.466.507 2.716.685 2.777.19.065.324 2.095.324 4.89 0 2.794-.135 4.823-.324 4.888-.178.061-.486 1.311-.685 2.778-.417 3.086-1.639 7.844-2.653 10.333-4.649 11.414-11.61 19.305-22.607 25.626-1.155.664-2.176 1.208-2.268 1.208-.092 0-.872.308-1.732.685l-2.232.976c-.367.16-1.717.585-3 .944-1.284.359-3.009.85-3.834 1.094-.825.243-1.95.463-2.5.488-3.51.163-7.5.621-7.5.862 0 .156-.3.284-.667.284-.366 0-.666-.13-.666-.288zm20.49-21.033c.866-.958.428-1.746-.9-1.617-1.272.123-1.676 1.14-.728 1.832.788.577.928.558 1.628-.215zm-29.958-.361c1.54-.746 2.022-1.484 1.433-2.194-.49-.59-1.098-.578-2.298.042-.868.449-.998.446-1.261-.026-.39-.697.42-6.666 1.297-9.551.823-2.708.744-3.39-.406-3.524-1.1-.128-1.622.654-2.599 3.89-1.355 4.49-3.214 7.888-5.139 9.394-.784.613-1.074.674-1.75.366-.445-.203-.81-.59-.81-.859 0-.717-1.028-1.199-1.74-.817-.806.431-.764 2.122.074 2.96.53.53 1.11.667 2.827.667 2.107 0 2.2-.038 3.727-1.5.86-.825 1.692-1.5 1.847-1.5.156 0 .373.454.484 1.01.213 1.06 1.51 2.323 2.388 2.323.284 0 1.15-.307 1.926-.682zm17.046.265c.557-.713 1.1-2.6 1.927-6.71.588-2.922.984-4.135 1.508-4.623.678-.631.703-1.007.156-2.334-.285-.694.502-.758 2.808-.226 1.305.3 1.554.261 2.156-.34.637-.638.644-.717.12-1.24-.463-.464-1.295-.565-4.823-.583-4.568-.024-6.583.262-7.512 1.068-1.284 1.115 1.245 1.924 3.212 1.028.456-.208 1.068-.286 1.361-.173.47.18.478.313.066 1.127-.257.508-.65 1.973-.875 3.256-.756 4.33-1.453 7.328-1.923 8.274-.363.73-.379 1.047-.072 1.417.487.587 1.455.617 1.891.059zm-8.01-.314c1.357-.58 2.099-1.286 2.099-1.998 0-1.001-.926-1.086-2.714-.25-1.258.59-1.801.695-2.225.43-.956-.599-.927-4.118.034-4.118.712 0 3.02-1.352 4.184-2.45 1.439-1.36 1.969-2.404 2.093-4.128.259-3.576-4.053-4.245-6.484-1.006-2.054 2.738-3.053 6.333-2.834 10.204.173 3.068.72 3.713 3.149 3.713.971 0 2.185-.179 2.698-.397zm-2.562-9.186c.008-.781 1.88-3.727 2.526-3.975.282-.108.675-.035.872.162.534.534-.264 2.205-1.623 3.398-1.297 1.139-1.784 1.252-1.775.415zm23.58 5.833c.353-.44.61-1.655 1.881-8.916 1.252-7.146 1.37-8.623.71-8.876-.892-.342-1.12.192-1.515 3.542-.458 3.885-1.455 9.504-2.15 12.11-.284 1.07-.432 2.083-.328 2.25.27.438 1.01.38 1.403-.11zm-8.663-21.594c2.761-.448 4.198-1.242 6.445-3.563 2.413-2.492 3.764-4.784 5.004-8.486 1.193-3.56 1.633-8.798.946-11.273-.228-.825-.395-2.2-.37-3.057.041-1.475-.048-1.639-1.684-3.11-2.68-2.41-3.754-2.834-7.167-2.83-2.378.006-3.243.151-4.596.788-4.023 1.895-6.385 5.289-8.383 12.042-.775 2.621-.954 10.573-.288 12.833 1.053 3.575 1.121 3.304-.716 2.829-1.024-.265-2.737-.353-4.688-.241-3.056.175-4.392-.167-3.882-.993.112-.18.332-1.476.489-2.878.157-1.403.524-3.675.816-5.05.293-1.375.683-3.325.869-4.333.397-2.166.64-3.207 1.969-8.454.55-2.175.911-4.237.802-4.583-.233-.732-1.472-1.123-2.633-.832-.966.242-1.56 1.055-3.688 5.035-1.746 3.267-3.565 5.784-6.364 8.807-1.365 1.475-1.804 2.197-1.804 2.968 0 1.232.35 1.483 2.064 1.483 1.062 0 1.553-.233 2.556-1.212 1.333-1.302 2.283-1.62 1.882-.629-.13.32-.52 2.75-.865 5.396-.346 2.647-.786 4.972-.979 5.167-.192.194-2.181.504-4.42.687l-4.072.333-.1 1.375c-.07.962.044 1.43.382 1.56.265.101 3.385.04 6.934-.137 3.548-.177 8.268-.225 10.488-.106 2.22.12 4.341.12 4.714 0 .373-.118.862-.66 1.088-1.204.225-.544.495-.989.6-.989.106 0 .605.396 1.109.879.859.822 3.835 2.09 4.953 2.108.275.006 1.44-.144 2.589-.33zm-2.798-3.317c-1.488-.601-2.86-3.535-3.278-7.005-.247-2.049.497-7.692 1.341-10.178 1.198-3.529 3.28-6.348 5.55-7.518 1.832-.945 2.939-.812 4.748.57 1.384 1.056 1.558 1.325 1.394 2.149-.11.545.087 1.744.466 2.845.894 2.596.824 4.458-.313 8.409-1.499 5.208-3.987 8.996-6.805 10.36-1.555.753-2.014.807-3.103.368zm202.31-53.989c-27.615 0-50.001 22.385-50 50 0 27.613 22.386 50 50 50s50-22.387 50-50c0-27.615-22.385-50-50-50zm-37.767 25.423h75.533l.692.3c.38.164.903.545 1.162.846l.47.548v37.468l-.496.86c-.933 1.614-2.541 2.638-4.604 2.933-.672.096-2.998.132-6.824.106-5.058-.034-5.866-.068-6.277-.254-1.034-.47-1.808-1.467-1.801-2.322.01-1.07 1.167-2.168 2.541-2.41.448-.078 2.979-.135 6.095-.135h5.328l-.04-12.636-.04-12.636h-67.944l-.04 12.633-.04 12.633 15.103.035c14.409.033 15.129.047 15.653.275 1.196.524 1.727 1.232 1.723 2.295 0 .874-.475 1.574-1.412 2.092l-.703.389-15.378.024c-11.567.018-15.589-.015-16.24-.133-1.902-.345-3.4-1.354-4.288-2.89l-.496-.86v-37.467l.47-.548c.259-.302.782-.682 1.162-.847l.692-.3zm36.747 17.74l.741.282c1.316.501 2.062 1.793 1.68 2.912-.239.698-1.193 1.513-1.98 1.692-.4.091-4.883.137-13.466.135-12.175 0-12.9-.015-13.493-.24-2.16-.817-2.38-3.179-.405-4.323l.667-.386 13.128-.036 13.128-.037zm20.765.03c4.683-.026 7.038.007 7.442.103 2.398.577 2.848 3.227.755 4.439l-.666.386-7.009.031c-6.56.03-7.048.017-7.635-.208-2.16-.826-2.38-3.18-.405-4.325l.666-.386 6.852-.039zm-26.95 7.582c5.373 0 6.246.044 6.703.186 2.51.782 2.685 3.597.283 4.55-.654.26-.872.264-13.757.26-11.616-.007-13.145-.029-13.562-.209-2.176-.938-2.387-3.205-.405-4.353l.667-.385 13.05-.036c2.941-.008 5.231-.013 7.022-.013zm31.905 1.271c.748 0 1.504.593 1.504 1.18 0 .502-.233.822-1.248 1.713-.606.533-.793.82-1.082 1.672-.45 1.328-2.05 3.99-3.477 5.788-1.04 1.31-1.748 1.928-9.542 8.327-4.63 3.803-8.456 6.913-8.501 6.913-.046 0-1.688-1.317-3.652-2.928l-3.57-2.929 8.671-7.078c7.817-6.382 8.833-7.166 10.308-7.958 2.21-1.186 4.6-2.172 6.413-2.648 1.366-.359 1.6-.47 2.575-1.224.882-.682 1.165-.828 1.6-.828zm-32.547 22.059l3.61 2.955 3.61 2.957-6.16 5.054c-7.115 5.838-7.144 5.856-9.529 5.91-.917.021-1.573-.036-2.089-.181-2.575-.724-3.505-3.524-2-6.023.392-.651 1.405-1.541 6.511-5.722l6.047-4.95zm13.92 2.514c1.79-.096 3.311 1.608 2.265 2.98-.176.23-3.166 2.747-6.644 5.59-4.287 3.506-6.512 5.235-6.907 5.37-.573.195-.945.219-1.658.107-.197-.032-.632-.268-.965-.529-.474-.368-.631-.606-.717-1.078-.203-1.11-.01-1.301 6.999-6.952 3.53-2.846 6.613-5.245 6.85-5.33.26-.093.52-.144.776-.158zm177.978-77.948c-27.615 0-50 22.386-50 50s22.385 50 50 50c27.614 0 50-22.386 50-50s-22.385-50-50-50zm.303 25.143c4.047.054 7.87 1.266 10.806 3.44 2.75 2.036 4.447 4.706 4.863 7.656.085.6.085 1.962 0 2.507a10.76 10.76 0 0 1-.726 2.6c-.124.29-1.625 2.724-4.762 7.718-2.52 4.011-4.595 7.326-4.61 7.366-.026.069.356.072 7.494.072h7.52l.516.84c.284.46 2.724 4.4 5.422 8.754 2.699 4.353 5.023 8.105 5.166 8.338l.258.425h-64.5l.205-.341c.113-.188 1.554-2.515 3.2-5.17 1.646-2.655 4.11-6.631 5.475-8.836l2.483-4.01h7.52c7.137 0 7.518-.006 7.492-.072-.015-.04-1.956-3.14-4.312-6.89a2263.789 2263.789 0 0 1-4.624-7.375c-.895-1.47-1.366-3.541-1.215-5.343.15-1.777.635-3.219 1.589-4.717.872-1.368 1.849-2.411 3.235-3.452 2.903-2.18 6.64-3.405 10.691-3.506.272-.007.543-.008.813-.006zm-.06 7.96c-1.589-.051-2.98.337-4.139 1.155-.722.51-1.377 1.336-1.637 2.064-.887 2.482 1.156 5.026 4.439 5.53.508.077 1.63.078 2.157.005v-.006c3.297-.482 5.363-3.037 4.473-5.531-.257-.718-.92-1.557-1.626-2.055-1.036-.73-2.26-1.12-3.667-1.164zm-9.327 25.138v1.906l.12.02c.067.012.267.041.444.066a8.953 8.953 0 0 1 3.253 1.17c.963.58 1.687 1.158 3.292 2.636 1.075.99 1.885 1.702 1.915 1.681.01-.008-1.032-1.689-2.316-3.736l-2.335-3.72-2.187-.011-2.186-.011zm-10.356 0l-1.7 2.746a376.02 376.02 0 0 0-1.737 2.818c-.047.094.011.093.571-.014a7.966 7.966 0 0 0 1.807-.627c.202-.1.8-.432 1.33-.736 1.622-.931 2.661-1.39 3.895-1.718 1.385-.369 3.157-.603 4.563-.603h.444v-1.865h-9.173zm29.44 0v.135c0 .243.213.823.433 1.185.625 1.028 1.795 1.703 3.706 2.137 1.52.344 3.343.484 6.74.513.793.007 1.008-.006.987-.043-.015-.03-.566-.924-1.224-1.99l-1.198-1.936h-9.444zm-1.938.006c-.304 0-.722.006-1.3.007l-2.048.011-2.365 3.768-2.365 3.77.695.52c3.294 2.467 6.936 3.579 12.413 3.79.726.027 3.486-.022 4.399-.08 4.447-.28 6.974-1.132 7.51-2.534l.067-.174-1.31-2.116-1.311-2.116h-1.238c-2.262 0-4.469-.104-5.78-.272-2.586-.332-4.483-1.089-5.516-2.2-.471-.506-.91-1.379-1.017-2.024-.05-.295.075-.347-.835-.35zm-18.329 2.72l-.74.03c-2.542.099-4.42.537-6.238 1.457-.334.169-.939.5-1.344.735-1.064.617-1.51.839-2.182 1.088a7.936 7.936 0 0 1-2.153.484l-.586.052-2.543 4.102c-1.399 2.256-2.543 4.125-2.544 4.154 0 .04 1.866.051 9.164.051h9.166v-12.153zm1.17.082c-.05.022-.055 12.005-.01 12.044.061.047 37.703.033 37.703-.015 0-.05-2.784-4.561-2.846-4.611-.023-.019-.13.058-.238.17-1.407 1.479-4.791 2.254-10.275 2.354-5.971.11-10.448-.883-13.989-3.099-1.17-.733-2.168-1.519-3.636-2.865-2.085-1.913-2.826-2.515-3.74-3.038a8.893 8.893 0 0 0-1.86-.756c-.384-.097-1.058-.208-1.114-.183zm175.513-60.906c-27.614 0-50 23.344-50 52.14 0 18.321 9.065 34.433 22.77 43.732-7.932-7.254-12.903-17.63-12.903-29.158 0-21.927 17.968-39.703 40.133-39.703 22.165 0 40.133 17.776 40.133 39.703 0 11.529-4.971 21.904-12.903 29.158 13.706-9.299 22.77-25.41 22.77-43.732 0-28.796-22.385-52.14-50-52.14zm0 31.18c-19.21 0-34.782 15.408-34.782 34.412 0 19.003 15.573 34.408 34.782 34.408 19.21 0 34.782-15.405 34.782-34.408 0-19.004-15.572-34.411-34.782-34.411zm.112 6.784c4.679.052 8.726 3.435 7.474 7.236-.641 1.946-1.505 2.859-3.583 3.79-2.564 1.148-5.726 1.098-8.26-.13-5.191-2.516-4.574-8.4 1.086-10.365a9.674 9.674 0 0 1 3.283-.531zm-7.958 14.387h3.17l2.233 2.238c1.228 1.232 2.327 2.239 2.443 2.239.116 0 1.215-1.007 2.444-2.239l2.232-2.238h3.17c3.044 0 3.227.043 4.6 1.092l1.43 1.093v16.402l-1.064.965c-.584.53-1.625 1.059-2.313 1.174l-1.25.21v18.651l-1.428 1.092c-1.218.931-1.721 1.092-3.397 1.092-1.613 0-2.187-.168-3.195-.939l-1.229-.938-1.229.938c-1.008.77-1.582.94-3.195.94-1.676 0-2.178-.162-3.397-1.093l-1.428-1.092v-18.651l-1.25-.21c-.688-.115-1.729-.644-2.313-1.174l-1.063-.965v-16.402l1.43-1.093c1.373-1.05 1.555-1.092 4.6-1.092z"/><text style="line-height:125%" x="-602.857" y="-481.923" font-weight="400" font-size="40" font-family="sans-serif" letter-spacing="0" word-spacing="0" transform="translate(0 -52.362)"><tspan x="-602.857" y="-481.923" font-size="180">a</tspan></text><text style="line-height:125%" x="-391.429" y="-490.495" font-weight="400" font-size="180" font-family="sans-serif" letter-spacing="0" word-spacing="0" transform="translate(0 -52.362)"><tspan x="-391.429" y="-490.495">b</tspan></text><text style="line-height:125%" x="-157.143" y="-487.638" font-weight="400" font-size="180" font-family="sans-serif" letter-spacing="0" word-spacing="0" transform="translate(0 -52.362)"><tspan x="-157.143" y="-487.638">c</tspan></text><text style="line-height:125%" x="94.286" y="-484.781" font-weight="400" font-size="180" font-family="sans-serif" letter-spacing="0" word-spacing="0" transform="translate(0 -52.362)"><tspan x="94.286" y="-484.781">d</tspan></text><text style="line-height:125%" x="325.714" y="-490.495" font-weight="400" font-size="180" font-family="sans-serif" letter-spacing="0" word-spacing="0" transform="translate(0 -52.362)"><tspan x="325.714" y="-490.495">e</tspan></text><text style="line-height:125%" x="582.857" y="-493.352" font-weight="400" font-size="180" font-family="sans-serif" letter-spacing="0" word-spacing="0" transform="translate(0 -52.362)"><tspan x="582.857" y="-493.352">f</tspan></text><text style="line-height:125%" x="797.143" y="-519.066" font-weight="400" font-size="180" font-family="sans-serif" letter-spacing="0" word-spacing="0" transform="translate(0 -52.362)"><tspan x="797.143" y="-519.066">g</tspan></text><path d="M-646.498-515.23h2327.391v12.123H-646.498zm-5.714 142.859h2327.391v12.122H-652.212z"/><text style="line-height:125%" x="1008.572" y="-484.781" font-weight="400" font-size="180" font-family="sans-serif" letter-spacing="0" word-spacing="0" transform="translate(0 -52.362)"><tspan x="1008.572" y="-484.781">h</tspan></text><text style="line-height:125%" x="1217.143" y="-481.923" font-weight="400" font-size="180" font-family="sans-serif" letter-spacing="0" word-spacing="0" transform="translate(0 -52.362)"><tspan x="1217.143" y="-481.923">i</tspan></text><text style="line-height:125%" x="1405.714" y="-519.066" font-weight="400" font-size="180" font-family="sans-serif" letter-spacing="0" word-spacing="0" transform="translate(0 -52.362)"><tspan x="1405.714" y="-519.066">j</tspan></text></svg>