<svg id="SvgjsSvg1000" xmlns="http://www.w3.org/2000/svg" version="1.1" xmlns:xlink="http://www.w3.org/1999/xlink" xmlns:svgjs="http://svgjs.com/svgjs" width="50" height="31"><defs id="SvgjsDefs1001"><clipPath id="SvgjsClipPath1012"><path id="SvgjsPath1011" d="M269.5 14.9993L290.5 14.9993C298.508 14.9993 305 21.4909 305 29.499299999999998L305 30.4992C305 38.5072 298.508 44.9992 290.5 44.9992L269.5 44.9992C261.492 44.9992 255 38.507200000000005 255 30.499200000000002L255 29.4993C255 21.490900000000003 261.492 14.999300000000002 269.5 14.999300000000002Z " fill="#ffffff"></path></clipPath></defs><path id="SvgjsPath1007" d="M265 24.9989L265 22.9987L295 22.9987L295 24.9989L265 24.9989 " fill="#ffffff" transform="matrix(1,0,0,1,-255,-14)"></path><path id="SvgjsPath1008" d="M265 30.9988L265 28.9986L295 28.9986L295 30.9988L265 30.9988 " fill="#ffffff" transform="matrix(1,0,0,1,-255,-14)"></path><path id="SvgjsPath1009" d="M265 36.9991L265 34.9989L295 34.9989L295 36.9991L265 36.9991 " fill="#ffffff" transform="matrix(1,0,0,1,-255,-14)"></path><path id="SvgjsPath1010" d="M269.5 14.9993L290.5 14.9993C298.508 14.9993 305 21.4909 305 29.499299999999998L305 30.4992C305 38.5072 298.508 44.9992 290.5 44.9992L269.5 44.9992C261.492 44.9992 255 38.507200000000005 255 30.499200000000002L255 29.4993C255 21.490900000000003 261.492 14.999300000000002 269.5 14.999300000000002Z " fill-opacity="0" fill="#ffffff" stroke-dasharray="0" stroke-linejoin="miter" stroke-linecap="butt" stroke-opacity="1" stroke="#ffffff" stroke-miterlimit="50" stroke-width="4" clip-path="url(&quot;#SvgjsClipPath1012&quot;)" transform="matrix(1,0,0,1,-255,-14)"></path></svg>